<?xml version="1.0" standalone="no"?>
<!DOCTYPE svg PUBLIC "-//W3C//DTD SVG 20010904//EN"
 "http://www.w3.org/TR/2001/REC-SVG-20010904/DTD/svg10.dtd">
<svg version="1.0" xmlns="http://www.w3.org/2000/svg"
 width="406.000000pt" height="385.000000pt" viewBox="0 0 406.000000 385.000000"
 preserveAspectRatio="xMidYMid meet">

<g transform="translate(0.000000,385.000000) scale(0.100000,-0.100000)"
fill="currentColor" stroke="none">
<path d="M1580 3633 c-214 -37 -470 -173 -470 -249 0 -14 10 -30 25 -40 39
-25 205 -14 310 20 117 39 274 119 318 161 45 44 47 82 7 102 -24 12 -135 15
-190 6z"/>
<path d="M2347 3539 c-96 -14 -244 -55 -412 -114 -187 -65 -377 -118 -635
-176 -256 -57 -396 -101 -525 -164 -129 -63 -225 -138 -289 -228 -132 -185
-46 -284 163 -187 90 42 165 99 326 245 241 219 350 290 522 340 70 21 110 26
198 26 200 1 378 -51 640 -185 329 -169 451 -210 625 -211 101 0 120 3 157 23
97 51 125 162 69 271 -37 73 -165 198 -252 249 -171 99 -388 140 -587 111z"/>
<path d="M1610 3129 c-191 -31 -365 -134 -475 -281 -114 -152 -129 -253 -49
-333 54 -54 117 -70 279 -70 178 0 244 14 545 115 388 131 577 170 818 170
140 -1 183 -9 282 -57 60 -30 95 -58 175 -137 56 -56 139 -146 187 -202 107
-125 177 -176 252 -182 39 -3 60 0 79 13 101 66 27 314 -143 486 -109 110
-199 134 -393 105 -133 -20 -213 -20 -309 -2 -104 21 -174 49 -445 184 -241
120 -380 173 -503 192 -77 12 -223 11 -300 -1z"/>
<path d="M2526 2554 c-144 -22 -304 -69 -595 -175 -352 -128 -432 -150 -587
-156 -139 -6 -229 9 -348 59 -254 106 -274 112 -386 113 -98 0 -110 -2 -172
-32 -137 -64 -218 -172 -226 -299 -4 -61 -1 -79 19 -120 56 -111 197 -160 340
-118 74 22 114 44 259 140 144 95 238 142 365 181 84 25 102 27 275 27 170 1
193 -2 288 -27 179 -47 289 -98 510 -236 229 -141 408 -186 581 -146 130 31
231 110 285 225 29 60 31 73 31 175 0 98 -3 116 -27 167 -91 194 -301 271
-612 222z"/>
<path d="M1113 2010 c-223 -73 -338 -321 -253 -545 32 -83 132 -183 212 -213
117 -44 246 -52 413 -27 159 24 278 60 565 170 374 143 492 175 654 175 119 0
206 -22 386 -98 183 -77 219 -85 328 -80 75 3 96 9 150 38 223 119 286 384
118 497 -80 55 -147 65 -249 38 -77 -20 -119 -42 -272 -145 -224 -150 -314
-186 -524 -210 -131 -15 -324 10 -482 61 -96 31 -243 103 -344 168 -127 83
-210 127 -296 158 -63 23 -93 27 -209 30 -115 2 -144 0 -197 -17z"/>
<path d="M299 1615 c-24 -13 -39 -38 -53 -91 -11 -36 13 -127 54 -209 59 -119
156 -225 255 -278 43 -24 39 -23 435 -15 126 2 167 -1 220 -15 87 -25 264
-100 462 -198 90 -44 205 -93 255 -109 386 -124 702 -54 932 204 74 84 105
153 106 237 0 56 -4 71 -27 101 -56 73 -178 103 -362 87 -125 -10 -216 -33
-501 -125 -289 -94 -382 -118 -570 -145 -169 -24 -334 -23 -420 5 -63 19 -174
85 -243 144 -29 25 -97 99 -151 166 -118 146 -164 189 -245 227 -67 32 -107
36 -147 14z"/>
<path d="M3400 1126 c-99 -37 -207 -117 -385 -282 -164 -154 -240 -210 -350
-264 -120 -59 -222 -82 -360 -81 -217 1 -389 55 -700 223 -252 135 -383 172
-586 166 -104 -3 -119 -6 -152 -28 -50 -35 -81 -93 -81 -155 0 -69 41 -142
131 -232 160 -159 357 -236 608 -236 164 0 251 19 570 123 184 60 356 107 540
150 482 110 675 191 831 347 87 88 129 218 84 263 -24 24 -94 26 -150 6z"/>
<path d="M2657 434 c-92 -16 -218 -63 -300 -112 -229 -134 -159 -224 127 -162
238 52 455 187 417 259 -18 34 -109 39 -244 15z"/>
</g>
</svg>
