<?xml version="1.0" standalone="no"?>
<!DOCTYPE svg PUBLIC "-//W3C//DTD SVG 20010904//EN"
 "http://www.w3.org/TR/2001/REC-SVG-20010904/DTD/svg10.dtd">
<svg version="1.0" xmlns="http://www.w3.org/2000/svg"
 width="1024.000000pt" height="1024.000000pt" viewBox="0 0 1024.000000 1024.000000"
 preserveAspectRatio="xMidYMid meet">

<g transform="translate(0.000000,1024.000000) scale(0.100000,-0.100000)"
fill="#000000" stroke="none">
<path d="M4780 9370 c-964 -90 -1806 -459 -2520 -1105 -373 -337 -703 -773
-934 -1233 -507 -1012 -591 -2191 -231 -3267 334 -1000 1036 -1848 1961 -2366
479 -269 989 -435 1562 -511 143 -19 215 -22 507 -23 356 0 434 5 715 51 726
116 1431 439 2019 923 175 144 453 427 597 607 184 230 371 518 493 763 722
1441 566 3182 -401 4468 -597 794 -1450 1356 -2413 1588 -158 38 -321 67 -505
91 -147 18 -704 27 -850 14z m1790 -4245 l0 -2535 -445 0 -445 0 0 2191 0
2192 -287 -6 c-226 -4 -313 -10 -403 -26 -422 -74 -676 -284 -772 -636 -39
-145 -33 -432 12 -611 55 -212 145 -363 329 -544 147 -147 223 -205 592 -455
151 -102 274 -192 274 -200 0 -7 -286 -441 -635 -964 l-635 -950 -477 -1
c-263 0 -478 4 -478 8 0 5 257 391 570 858 l571 849 -28 22 c-15 12 -75 59
-133 103 -631 486 -894 989 -867 1660 17 433 160 783 427 1050 254 253 589
412 1021 484 230 39 331 43 1102 45 l707 1 0 -2535z"/>
</g>
</svg>
